<svg xmlns="http://www.w3.org/2000/svg" viewBox="0 0 640 360" role="img" aria-labelledby="previewTitle previewDesc">
  <title id="previewTitle">Pro console preview placeholder</title>
  <desc id="previewDesc">Grey wireframe of four Pro hubs. Media Console is first. Not final art.</desc>
  <rect width="640" height="360" rx="16" fill="#3a414d"/>
  <text x="24" y="34" fill="#e6ebf2" font-family="ui-sans-serif, system-ui, sans-serif" font-size="13" font-weight="700" letter-spacing="1.6">PLACEHOLDER</text>
  <rect x="20" y="52" width="292" height="288" rx="12" fill="#4a5260" stroke="#a7b0be" stroke-dasharray="5 4" stroke-width="1.5"/>
  <text x="36" y="78" fill="#e6ebf2" font-family="ui-sans-serif, system-ui, sans-serif" font-size="15" font-weight="700">Pro home</text>
  <g font-family="ui-sans-serif, system-ui, sans-serif" font-size="13" font-weight="700">
    <rect x="36" y="94" width="260" height="52" rx="10" fill="#d7dde6"/>
    <text x="166" y="124" fill="#1c2430" text-anchor="middle">Media Console</text>
    <rect x="36" y="154" width="260" height="52" rx="10" fill="#8b93a3"/>
    <text x="166" y="176" fill="#f4f7fb" text-anchor="middle">In-House Tournament</text>
    <text x="166" y="194" fill="#f4f7fb" text-anchor="middle">Management Suite</text>
    <rect x="36" y="214" width="260" height="52" rx="10" fill="#8b93a3"/>
    <text x="166" y="236" fill="#f4f7fb" text-anchor="middle">Competitor</text>
    <text x="166" y="254" fill="#f4f7fb" text-anchor="middle">Management System</text>
    <rect x="36" y="274" width="260" height="52" rx="10" fill="#8b93a3"/>
    <text x="166" y="296" fill="#f4f7fb" text-anchor="middle">Instructor Collaboration</text>
    <text x="166" y="314" fill="#f4f7fb" text-anchor="middle">and Cloud Access</text>
  </g>
  <rect x="328" y="52" width="292" height="288" rx="12" fill="#4a5260" stroke="#a7b0be" stroke-dasharray="5 4" stroke-width="1.5"/>
  <text x="344" y="80" fill="#e6ebf2" font-family="ui-sans-serif, system-ui, sans-serif" font-size="15" font-weight="700">Media Console</text>
  <g fill="#6d7584">
    <rect x="344" y="98" width="260" height="40" rx="8"/>
    <rect x="344" y="148" width="260" height="40" rx="8"/>
    <rect x="344" y="198" width="260" height="40" rx="8"/>
    <rect x="344" y="248" width="260" height="40" rx="8"/>
  </g>
  <g fill="#c5ccd6" font-family="ui-sans-serif, system-ui, sans-serif" font-size="13" font-weight="700" text-anchor="middle">
    <text x="474" y="123">Gallery</text>
    <text x="474" y="173">Class Schedule</text>
    <text x="474" y="223">Pro Shop</text>
    <text x="474" y="273">Events</text>
  </g>
</svg>
